<svg width="100" height="100" viewBox="0 0 100 100" fill="none" xmlns="http://www.w3.org/2000/svg">
  <path d="M 22 10 L 10 10 L 10 44" stroke="#FFFFFF" stroke-width="8" fill="none" stroke-linecap="square" stroke-linejoin="miter"/>
  <path d="M 10 56 L 10 90 L 22 90" stroke="#FFFFFF" stroke-width="8" fill="none" stroke-linecap="square" stroke-linejoin="miter"/>
  <rect x="6" y="48" width="10" height="4" fill="#991B1B"/>
  <path d="M 78 10 L 90 10 L 90 44" stroke="#FFFFFF" stroke-width="8" fill="none" stroke-linecap="square" stroke-linejoin="miter"/>
  <path d="M 90 56 L 90 90 L 78 90" stroke="#FFFFFF" stroke-width="8" fill="none" stroke-linecap="square" stroke-linejoin="miter"/>
  <rect x="84" y="48" width="10" height="4" fill="#B84A00"/>
  <rect x="24" y="24" width="24" height="24" fill="#991B1B"/>
  <rect x="55" y="27" width="18" height="18" fill="none" stroke="#FFFFFF" stroke-width="6" stroke-linecap="square"/>
  <path fill-rule="evenodd" clip-rule="evenodd" d="M 24 52 H 48 V 76 H 24 V 52 Z M 30 66 H 42 V 70 H 30 V 66 Z" fill="#FFFFFF"/>
  <rect x="52" y="52" width="24" height="24" fill="#B84A00"/>
  <rect x="48" y="48" width="4" height="4" fill="#FFFFFF"/>
  <rect x="24" y="48" width="4" height="4" fill="#FFFFFF"/>
  <rect x="72" y="48" width="4" height="4" fill="#FFFFFF"/>
  <rect x="48" y="24" width="4" height="4" fill="#FFFFFF"/>
  <rect x="48" y="72" width="4" height="4" fill="#FFFFFF"/>
</svg>
